<?xml version="1.0" encoding="iso-8859-1"?>
<!-- Generator: Adobe Illustrator 19.0.0, SVG Export Plug-In . SVG Version: 6.00 Build 0)  -->
<svg version="1.1" id="Capa_1" xmlns="http://www.w3.org/2000/svg" xmlns:xlink="http://www.w3.org/1999/xlink" x="0px" y="0px"
	 viewBox="0 0 502.578 502.578" style="enable-background:new 0 0 502.578 502.578;" xml:space="preserve">
<g>
	<g>
		<g>
			<path d="M369.001,439.203c-12.403-22.024-72.952-132.854-67.042-187.148c3.883-35.16,13.072-56.839,21.075-69.674
				c20.643-19.263,33.715-46.485,33.715-76.921C356.748,47.218,309.552,0,251.31,0c-58.263-0.022-105.438,47.197-105.438,105.438
				c0,30.436,13.072,57.68,33.737,76.921c7.96,12.878,17.17,34.535,21.01,69.695c5.932,54.272-54.596,165.06-66.977,187.105H52.795
				v63.418h396.989V439.16h-80.783C369.001,439.16,369.001,439.203,369.001,439.203z M296.717,31.148
				c16.631,0.022,30.134,13.568,30.134,30.113c0,16.696-13.546,30.178-30.134,30.178c-16.631,0-30.134-13.482-30.134-30.178
				C266.583,44.695,280.107,31.148,296.717,31.148z"/>
		</g>
	</g>
	<g>
	</g>
	<g>
	</g>
	<g>
	</g>
	<g>
	</g>
	<g>
	</g>
	<g>
	</g>
	<g>
	</g>
	<g>
	</g>
	<g>
	</g>
	<g>
	</g>
	<g>
	</g>
	<g>
	</g>
	<g>
	</g>
	<g>
	</g>
	<g>
	</g>
</g>
<g>
</g>
<g>
</g>
<g>
</g>
<g>
</g>
<g>
</g>
<g>
</g>
<g>
</g>
<g>
</g>
<g>
</g>
<g>
</g>
<g>
</g>
<g>
</g>
<g>
</g>
<g>
</g>
<g>
</g>
</svg>
