<?xml version="1.0" encoding="iso-8859-1"?>
<!-- Generator: Adobe Illustrator 16.0.0, SVG Export Plug-In . SVG Version: 6.00 Build 0)  -->
<!DOCTYPE svg PUBLIC "-//W3C//DTD SVG 1.1//EN" "http://www.w3.org/Graphics/SVG/1.1/DTD/svg11.dtd">
<svg version="1.1" id="Capa_1" xmlns="http://www.w3.org/2000/svg" xmlns:xlink="http://www.w3.org/1999/xlink" x="0px" y="0px"
	 width="36.27px" height="36.27px" viewBox="0 0 36.27 36.27" style="enable-background:new 0 0 36.27 36.27;" xml:space="preserve"
	>
<g>
	<path d="M28.005,32.177v4.093H8.265v-4.093H28.005z M11.006,31.205h14.258v-4.094H11.006V31.205z M11.291,9.366
		c-1.889-2.089-2.102-4.719-0.477-5.874c1.045-0.742,2.592-0.686,4.067-0.003C14.961,1.55,16.379,0,18.133,0s3.172,1.55,3.252,3.489
		c1.476-0.683,3.022-0.739,4.067,0.003c1.625,1.155,1.412,3.785-0.478,5.874c-0.321,0.356-0.819,0.729-1.325,1.056h1.61v4.093
		h-2.165v11.688h-9.924V14.515h-2.167v-4.093h1.521C12.031,10.051,11.553,9.656,11.291,9.366z M21.071,3.657h-0.016v0.008
		C21.061,3.662,21.065,3.659,21.071,3.657z M15.199,3.657c0.024,0.013,0.049,0.029,0.074,0.042V3.657H15.199z"/>
</g>
<g>
</g>
<g>
</g>
<g>
</g>
<g>
</g>
<g>
</g>
<g>
</g>
<g>
</g>
<g>
</g>
<g>
</g>
<g>
</g>
<g>
</g>
<g>
</g>
<g>
</g>
<g>
</g>
<g>
</g>
</svg>
