<?xml version="1.0" encoding="iso-8859-1"?>
<!-- Generator: Adobe Illustrator 16.0.0, SVG Export Plug-In . SVG Version: 6.00 Build 0)  -->
<!DOCTYPE svg PUBLIC "-//W3C//DTD SVG 1.1//EN" "http://www.w3.org/Graphics/SVG/1.1/DTD/svg11.dtd">
<svg version="1.1" id="Capa_1" xmlns="http://www.w3.org/2000/svg" xmlns:xlink="http://www.w3.org/1999/xlink" x="0px" y="0px"
	 width="43.188px" height="43.188px" viewBox="0 0 43.188 43.188" style="enable-background:new 0 0 43.188 43.188;"
	 xml:space="preserve">
<g>
	<path d="M30.067,36.898v-4.81h-2.271v-8.124h2.271v-6.29H25.42c2.008-1.224,3.354-3.427,3.354-5.943
		c0-3.563-5.572-10.119-6.207-10.855L21.809,0l-0.757,0.877c-0.636,0.736-6.206,7.292-6.206,10.855c0,2.518,1.348,4.721,3.354,5.943
		h-5.078v6.29h2.271v8.124h-2.271v4.81h-2.873v6.29H32.94v-6.29H30.067z M16.846,11.733c0-1.896,2.791-5.966,4.963-8.644
		c2.174,2.675,4.965,6.744,4.965,8.644c0,2.736-2.229,4.964-4.965,4.964C19.073,16.697,16.846,14.469,16.846,11.733z M15.121,19.676
		h12.945v2.29H15.121V19.676z M25.795,23.966v8.046h-8.403v-8.046H25.795z M15.121,34.089h12.945v2.29H15.121V34.089z M30.94,41.188
		H12.25v-2.29h18.69V41.188z"/>
</g>
<g>
</g>
<g>
</g>
<g>
</g>
<g>
</g>
<g>
</g>
<g>
</g>
<g>
</g>
<g>
</g>
<g>
</g>
<g>
</g>
<g>
</g>
<g>
</g>
<g>
</g>
<g>
</g>
<g>
</g>
</svg>
