<?xml version="1.0" encoding="iso-8859-1"?>
<!-- Generator: Adobe Illustrator 19.0.0, SVG Export Plug-In . SVG Version: 6.00 Build 0)  -->
<svg version="1.1" id="Capa_1" xmlns="http://www.w3.org/2000/svg" xmlns:xlink="http://www.w3.org/1999/xlink" x="0px" y="0px"
	 viewBox="0 0 433 433" style="enable-background:new 0 0 433 433;" xml:space="preserve">
<path d="M299.562,377h-17.479l-20.227-163.899c8.676-5.281,16.463-12.115,22.969-20.33l3.687-4.656l-3.687-4.656
	c-8.956-11.31-20.335-20.009-33.128-25.625c25.383-12.548,42.887-38.704,42.887-68.883V66h-71V34h25V19h-25V0h-15v19h-24v15h24v32
	h-69v22.95c0,29.979,17.277,55.984,42.387,68.627c-13.035,5.606-24.628,14.397-33.722,25.881l-3.687,4.656l3.687,4.656
	c5.667,7.156,12.304,13.267,19.654,18.215L150.853,377h-22.366l-12.381,56h200.788L299.562,377z M154.583,88.95V81h125v7.95
	c0,32.857-25.778,59.798-58.169,61.685c-1.618-0.089-3.244-0.135-4.877-0.135c-1.397,0-2.787,0.04-4.172,0.105
	C180.156,148.526,154.583,121.675,154.583,88.95z M164.025,188.114c12.597-13.411,29.726-21.279,48.225-22.354
	c1.369,0.073,2.746,0.239,4.133,0.239h1.4c1.142,0,2.276-0.162,3.406-0.211c18.359,1.158,35.345,9.066,47.859,22.388
	c-13.565,14.442-32.383,22.583-52.512,22.583S177.59,202.557,164.025,188.114z M182.185,218.744
	c10.68,4.559,22.321,6.985,34.352,6.985c10.807,0,21.301-1.955,31.066-5.657L266.969,377H165.931L182.185,218.744z M134.784,418
	l5.749-26h8.779h134.622h4.569l8.047,26H134.784z"/>
<g>
</g>
<g>
</g>
<g>
</g>
<g>
</g>
<g>
</g>
<g>
</g>
<g>
</g>
<g>
</g>
<g>
</g>
<g>
</g>
<g>
</g>
<g>
</g>
<g>
</g>
<g>
</g>
<g>
</g>
</svg>
