<?xml version="1.0" encoding="iso-8859-1"?>
<!-- Generator: Adobe Illustrator 16.0.0, SVG Export Plug-In . SVG Version: 6.00 Build 0)  -->
<!DOCTYPE svg PUBLIC "-//W3C//DTD SVG 1.1//EN" "http://www.w3.org/Graphics/SVG/1.1/DTD/svg11.dtd">
<svg version="1.1" id="Capa_1" xmlns="http://www.w3.org/2000/svg" xmlns:xlink="http://www.w3.org/1999/xlink" x="0px" y="0px"
	 width="38.154px" height="38.154px" viewBox="0 0 38.154 38.154" style="enable-background:new 0 0 38.154 38.154;"
	 xml:space="preserve">
<g>
	<g>
		<path d="M18.06,5.943c-0.733,0-1.33,0.597-1.33,1.33s0.597,1.33,1.33,1.33c0.733,0,1.33-0.597,1.33-1.33S18.793,5.943,18.06,5.943
			z M18.06,7.979c-0.389,0-0.706-0.317-0.706-0.706s0.317-0.706,0.706-0.706c0.389,0,0.706,0.317,0.706,0.706
			C18.765,7.663,18.449,7.979,18.06,7.979z"/>
		<path d="M29.621,9.641c-0.027-0.258-0.136-0.465-0.311-0.608c0.092-0.157,0.092-0.315,0.086-0.392
			c-0.219-1.934-2.211-3.687-2.879-4.111c-0.117-0.17-0.264-0.256-0.432-0.256c-0.031,0-0.059,0.003-0.086,0.008
			c-0.07-0.225-0.223-0.377-0.244-0.398l-0.047-0.037c-0.132-0.084-3.213-2.063-3.736-2.35c-0.168-0.092-0.338-0.139-0.51-0.139
			c-0.088,0-0.17,0.012-0.242,0.032c-0.297-0.552-1.236-0.907-2.649-1.298C18.348,0.03,18.161,0,18,0c-0.35,0-0.525,0.147-0.61,0.27
			c-0.184,0.265-0.072,0.585-0.064,0.608c0.005,0.015,0.461,1.476-0.135,2.915c-0.339,0.819-2.388,1.821-4.369,2.79
			C11.325,7.315,9.776,8.072,8.635,8.88L8.516,8.965L8.504,9.111c-0.154,1.949,0.143,3.344,0.884,4.145
			c0.584,0.632,1.267,0.681,1.462,0.681c0.027,0,0.048-0.001,0.061-0.002c0.213,0.003,2.981,0.045,4.98,0.167
			c-0.888,0.736-2.078,1.978-2.307,2.305c-0.464,0.663-0.52,2.652,0.29,3.76c0.543,0.744,0.451,2.338,0.365,2.938
			c-0.102,0.242-0.831,1.905-2.535,3.938l-0.163,0.193l0.157,0.199c0.02,0.025,0.042,0.049,0.063,0.073
			c-0.756,0.479-1.193,1.052-1.193,1.673c0,0.299,0.104,0.588,0.294,0.86c-0.996,1.194-1.896,2.937-1.896,5.342v0.214l0.179,0.114
			c1.785,1.146,3.906,1.899,6.306,2.24l0.154,0.026c0.043,0.006,1.06,0.174,2.608,0.176h0.075h0.073
			c1.55-0.002,2.566-0.17,2.609-0.176l0.101-0.019c2.422-0.337,4.562-1.093,6.36-2.248l0.179-0.114v-0.214
			c0-2.405-0.899-4.147-1.896-5.342c0.19-0.272,0.293-0.562,0.293-0.86c0-0.604-0.41-1.162-1.129-1.633
			c0.03-0.027,0.063-0.053,0.092-0.08l0.22-0.207l-0.2-0.226c-2.475-2.804-2.48-4.204-2.484-5.04
			c-0.002-0.131-0.002-0.256-0.012-0.37l-0.007-0.045c-0.222-0.921,2.146-2.171,2.876-2.532c2.402-1.188,3.837-4.032,3.986-4.652
			c0.058-0.24,0.053-0.442-0.016-0.604c0.147-0.147,0.272-0.359,0.307-0.651C29.715,12.586,29.701,10.393,29.621,9.641z
			 M26.828,35.173c-1.691,1.046-3.699,1.729-5.973,2.032l-0.338,0.05v0.001c-0.408,0.049-1.175,0.12-2.158,0.121h-0.07h-0.072
			c-0.981,0-1.748-0.072-2.156-0.121l-0.338-0.051c-2.273-0.303-4.281-0.986-5.973-2.032c0.049-2.05,0.8-3.543,1.642-4.58
			c1.26,1.007,3.844,1.683,6.897,1.683c3.042,0,5.621-0.672,6.884-1.672C26.021,31.645,26.779,33.139,26.828,35.173z M25.385,29.184
			c0,0.127-0.035,0.256-0.1,0.383c-0.099,0.197-0.273,0.393-0.515,0.58c-0.331,0.256-0.786,0.498-1.353,0.711
			c-1.365,0.512-3.188,0.795-5.129,0.795c-1.942,0-3.763-0.282-5.128-0.795c-0.574-0.215-1.034-0.461-1.365-0.721
			c-0.235-0.184-0.405-0.376-0.503-0.57c-0.064-0.127-0.1-0.256-0.1-0.383c0-0.431,0.377-0.869,1.057-1.256
			c0.183,0.123,0.392,0.238,0.622,0.346c0.323,0.149,0.688,0.283,1.082,0.4c1.364,0.405,3.077,0.614,4.615,0.614
			c1.623,0,3.078-0.216,4.256-0.614c0.329-0.111,0.635-0.238,0.919-0.377c0.222-0.109,0.427-0.225,0.618-0.35
			C25.021,28.329,25.385,28.76,25.385,29.184z M29.023,13.066c-0.035,0.297-0.248,0.373-0.285,0.384l-2.479,0.615h2.506
			c0.003,0.033,0,0.094-0.021,0.187c-0.113,0.468-1.48,3.163-3.656,4.239c-2.344,1.159-3.424,2.239-3.211,3.213
			c0.006,0.084,0.006,0.185,0.006,0.297c0.004,0.84,0.011,2.384,2.436,5.213c-0.004,0.003-0.009,0.007-0.014,0.011
			c-0.088,0.068-0.182,0.135-0.279,0.199c-0.104,0.068-0.213,0.135-0.327,0.197c-0.192,0.107-0.399,0.206-0.622,0.297
			c-1.17,0.482-2.725,0.746-4.508,0.746c-1.879,0-3.73-0.305-4.984-0.77c-0.246-0.092-0.469-0.188-0.664-0.291
			c-0.121-0.064-0.232-0.129-0.331-0.197c-0.085-0.059-0.163-0.116-0.23-0.176c0.021-0.026,0.042-0.053,0.063-0.078
			c1.728-2.135,2.383-3.778,2.411-3.851l0.018-0.065c0.014-0.094,0.348-2.313-0.473-3.437c-0.697-0.954-0.557-2.642-0.282-3.034
			c0.396-0.566,2.401-2.486,2.762-2.601l2.312-0.408l-2.338-0.21c-2.016-0.181-5.886-0.235-5.924-0.235l-0.03,0.001
			c-0.004,0-0.013,0.001-0.028,0.001c-0.131,0-0.591-0.035-1.004-0.481c-0.415-0.449-0.873-1.424-0.731-3.526
			c1.09-0.749,2.559-1.467,3.982-2.163c2.276-1.114,4.242-2.076,4.671-3.113c0.686-1.658,0.174-3.278,0.149-3.354
			c-0.004-0.013-0.007-0.03-0.008-0.045C17.925,0.628,17.954,0.624,18,0.624c0.103,0,0.239,0.023,0.403,0.069
			c0.56,0.155,2.048,0.568,2.269,0.998c0.022,0.043,0.021,0.07,0.008,0.102l-0.595,1.629l1.13-1.324
			c0.004-0.005,0.101-0.116,0.248-0.116c0.063,0,0.133,0.021,0.209,0.062c0.477,0.262,3.326,2.089,3.666,2.307
			c0.026,0.034,0.073,0.105,0.072,0.16c-0.001,0.034-0.025,0.074-0.076,0.116l-1.505,1.305L25.66,5.15
			c0.139-0.059,0.247-0.128,0.334-0.184c0.014-0.008,0.027-0.017,0.041-0.026l0.027,0.048l0.074,0.042
			c0.483,0.276,2.445,1.964,2.638,3.686c-0.007,0.012-0.063,0.061-0.224,0.093c-0.049,0-0.106,0.002-0.166,0.009l0,0l-0.016,0.004
			c-0.056,0.008-0.111,0.02-0.162,0.041l-2.883,0.731l3.061-0.138V9.454c0.051-0.002,0.123-0.006,0.224-0.022
			c0.364,0.005,0.383,0.181,0.394,0.276C29.074,10.395,29.09,12.559,29.023,13.066z"/>
	</g>
</g>
<g>
</g>
<g>
</g>
<g>
</g>
<g>
</g>
<g>
</g>
<g>
</g>
<g>
</g>
<g>
</g>
<g>
</g>
<g>
</g>
<g>
</g>
<g>
</g>
<g>
</g>
<g>
</g>
<g>
</g>
</svg>
