<?xml version="1.0" encoding="iso-8859-1"?>
<!-- Generator: Adobe Illustrator 16.0.0, SVG Export Plug-In . SVG Version: 6.00 Build 0)  -->
<!DOCTYPE svg PUBLIC "-//W3C//DTD SVG 1.1//EN" "http://www.w3.org/Graphics/SVG/1.1/DTD/svg11.dtd">
<svg version="1.1" id="Capa_1" xmlns="http://www.w3.org/2000/svg" xmlns:xlink="http://www.w3.org/1999/xlink" x="0px" y="0px"
	 width="66.859px" height="66.858px" viewBox="0 0 66.859 66.858" style="enable-background:new 0 0 66.859 66.858;"
	 xml:space="preserve">
<g>
	<path d="M51.677,55.355c0.272-0.428,0.43-0.932,0.43-1.463c0-1.488-1.213-2.701-2.701-2.701h-3.407L42.13,27.973
		c0.86-0.485,1.432-1.403,1.432-2.455c0-0.348-0.063-0.688-0.188-1.005c2.492-2.684,3.904-6.252,3.904-9.926
		C47.278,6.544,40.735,0,32.692,0S18.104,6.544,18.104,14.587c0,3.634,1.391,7.176,3.84,9.854c-0.141,0.337-0.213,0.702-0.213,1.077
		c0,1.024,0.533,1.922,1.363,2.418l-3.457,23.255h-3.278c-1.49,0-2.701,1.213-2.701,2.701c0,0.865,0.406,1.637,1.041,2.131
		c-0.666,1.086-1.041,2.494-1.041,3.994c0,1.886,0.594,3.623,1.607,4.762v0.158c0,1.059,0.863,1.921,1.922,1.921h31.391
		c0.76,0,1.42-0.445,1.73-1.091c1.731-0.819,2.893-3.069,2.893-5.75C53.2,58.178,52.628,56.484,51.677,55.355z M49.134,63.872
		l-0.828,0.21v0.585H17.456v-0.825l-0.363-0.326c-0.756-0.682-1.246-2.053-1.246-3.498c0-1.467,0.479-2.809,1.246-3.5l0.363-0.326
		l-0.004-1.786h-1.093c-0.281,0-0.512-0.229-0.512-0.513c0-0.282,0.23-0.512,0.512-0.512h5.168l4.023-27.077l-1.082-0.16
		c-0.316-0.048-0.547-0.311-0.547-0.626c0-0.169,0.066-0.329,0.188-0.45l0.783-0.789l-0.799-0.771
		c-2.412-2.326-3.797-5.577-3.797-8.92c0-6.835,5.563-12.396,12.396-12.396c6.836,0,12.396,5.562,12.396,12.396
		c0,3.371-1.4,6.639-3.842,8.965l-0.781,0.743l0.732,0.792c0.078,0.087,0.174,0.231,0.174,0.431c0,0.326-0.25,0.595-0.578,0.626
		l-1.17,0.11l4.521,27.127h5.26c0.281,0,0.512,0.229,0.512,0.512c0,0.203-0.123,0.387-0.309,0.469l-1.961,0.85l1.832,1.096
		c0.738,0.44,1.531,1.789,1.531,3.711C51.011,62.135,50.058,63.641,49.134,63.872z M29.3,31.019l-3.098,18.377
		c-0.084,0.506-0.521,0.863-1.016,0.863c-0.059,0-0.115-0.006-0.174-0.017c-0.563-0.095-0.941-0.627-0.846-1.188l3.096-18.38
		c0.096-0.561,0.627-0.942,1.189-0.844C29.017,29.924,29.394,30.457,29.3,31.019z M30.511,4.492c0.152,0.43-0.074,0.901-0.504,1.053
		c-7.484,2.632-6.523,8.936-6.48,9.203c0.076,0.449-0.229,0.876-0.68,0.95c-0.045,0.008-0.092,0.011-0.137,0.011
		c-0.396,0-0.746-0.286-0.813-0.689c-0.014-0.078-1.217-7.946,7.561-11.034C29.888,3.833,30.361,4.061,30.511,4.492z"/>
</g>
<g>
</g>
<g>
</g>
<g>
</g>
<g>
</g>
<g>
</g>
<g>
</g>
<g>
</g>
<g>
</g>
<g>
</g>
<g>
</g>
<g>
</g>
<g>
</g>
<g>
</g>
<g>
</g>
<g>
</g>
</svg>
